<svg version="1.1" id="Layer_1" xmlns="http://www.w3.org/2000/svg" xmlns:xlink="http://www.w3.org/1999/xlink" x="0px" y="0px"
	 width="100%" viewBox="0 0 1254 1254" enable-background="new 0 0 1254 1254" xml:space="preserve">
<path fill="#010100" opacity="1.000000" stroke="none" 
	d="
M581.000000,1255.000000 
	C387.333344,1255.000000 194.166672,1255.000000 1.000000,1255.000000 
	C1.000000,837.000000 1.000000,419.000000 1.000000,1.000000 
	C419.000000,1.000000 837.000000,1.000000 1255.000000,1.000000 
	C1255.000000,419.000000 1255.000000,837.000000 1255.000000,1255.000000 
	C1030.500000,1255.000000 806.000000,1255.000000 581.000000,1255.000000 
M717.823730,870.140442 
	C765.789673,853.452820 806.635132,826.328186 838.530090,786.579285 
	C879.203003,735.890869 900.085083,677.899780 900.957520,612.848083 
	C901.001526,609.564880 902.307068,607.761963 904.579468,605.822754 
	C927.817993,585.991150 949.958984,565.047302 968.352539,540.509460 
	C982.497314,521.639648 995.170105,501.996674 999.573242,478.158691 
	C1004.013855,454.118225 995.254883,434.200989 974.158752,421.731995 
	C963.523071,415.445709 951.737793,412.498718 939.628967,410.945770 
	C918.474976,408.232849 897.379944,409.767365 876.359863,412.598480 
	C872.454285,413.124512 869.961548,412.891205 867.378479,409.024719 
	C854.517212,389.773346 829.864807,382.179596 808.252380,390.513184 
	C805.052307,391.747101 803.041199,391.513977 800.403748,389.235168 
	C781.129089,372.581085 760.054810,358.436462 736.445251,348.921967 
	C635.049805,308.060150 540.332336,321.728729 456.958099,391.351044 
	C382.549469,453.486572 352.074127,536.262634 359.726898,632.898926 
	C359.973541,636.013245 359.319092,638.062317 356.821259,640.169373 
	C336.274933,657.501221 317.109711,676.238586 300.145935,697.138916 
	C285.395660,715.312073 272.290253,734.485291 263.796631,756.522766 
	C250.597046,790.770142 262.591522,821.158508 295.850708,836.558838 
	C314.985077,845.418884 335.554657,847.430420 356.288513,847.867432 
	C393.880127,848.659851 430.573761,842.237793 466.902924,833.329651 
	C470.609650,832.420715 473.337067,832.897705 476.453644,835.142700 
	C496.134125,849.319092 517.398315,860.590210 540.282532,868.658936 
	C598.997864,889.361145 657.943420,890.418640 717.823730,870.140442 
z"/>
<path fill="#F9F9F9" opacity="1.000000" stroke="none" 
	d="
M717.450684,870.269165 
	C657.943420,890.418640 598.997864,889.361145 540.282532,868.658936 
	C517.398315,860.590210 496.134125,849.319092 476.453644,835.142700 
	C473.337067,832.897705 470.609650,832.420715 466.902924,833.329651 
	C430.573761,842.237793 393.880127,848.659851 356.288513,847.867432 
	C335.554657,847.430420 314.985077,845.418884 295.850708,836.558838 
	C262.591522,821.158508 250.597046,790.770142 263.796631,756.522766 
	C272.290253,734.485291 285.395660,715.312073 300.145935,697.138916 
	C317.109711,676.238586 336.274933,657.501221 356.821259,640.169373 
	C359.319092,638.062317 359.973541,636.013245 359.726898,632.898926 
	C352.074127,536.262634 382.549469,453.486572 456.958099,391.351044 
	C540.332336,321.728729 635.049805,308.060150 736.445251,348.921967 
	C760.054810,358.436462 781.129089,372.581085 800.403748,389.235168 
	C803.041199,391.513977 805.052307,391.747101 808.252380,390.513184 
	C829.864807,382.179596 854.517212,389.773346 867.378479,409.024719 
	C869.961548,412.891205 872.454285,413.124512 876.359863,412.598480 
	C897.379944,409.767365 918.474976,408.232849 939.628967,410.945770 
	C951.737793,412.498718 963.523071,415.445709 974.158752,421.731995 
	C995.254883,434.200989 1004.013855,454.118225 999.573242,478.158691 
	C995.170105,501.996674 982.497314,521.639648 968.352539,540.509460 
	C949.958984,565.047302 927.817993,585.991150 904.579468,605.822754 
	C902.307068,607.761963 901.001526,609.564880 900.957520,612.848083 
	C900.085083,677.899780 879.203003,735.890869 838.530090,786.579285 
	C806.635132,826.328186 765.789673,853.452820 717.450684,870.269165 
M798.608826,482.912415 
	C786.682861,475.203918 779.246094,464.236755 776.040527,450.569000 
	C772.059204,433.593719 776.250122,418.354645 787.372498,404.959503 
	C786.424805,404.117645 785.831116,403.547943 785.194702,403.030853 
	C733.143250,360.738373 673.484924,342.251617 606.956238,348.985382 
	C527.044067,357.073730 464.215210,395.514587 420.382416,462.586304 
	C382.761292,520.153015 370.653778,584.154907 382.398071,651.815552 
	C393.281586,714.517212 424.227844,766.179199 473.282410,806.925659 
	C476.293243,809.426514 478.790619,809.573669 482.228851,808.635803 
	C520.792419,798.116638 558.370361,784.721558 595.283936,769.494324 
	C644.913513,749.021790 692.970825,725.308105 739.375366,698.277161 
	C787.213806,670.410950 833.022034,639.607666 875.875916,604.474182 
	C879.511353,601.493774 880.682617,598.565063 880.477051,593.947937 
	C879.244446,566.265198 873.397278,539.558838 863.649658,513.727051 
	C859.863220,503.692566 854.940186,494.086945 850.481323,484.166718 
	C832.676819,492.989502 815.831299,492.939301 798.608826,482.912415 
M680.558960,752.960205 
	C622.121399,782.194763 561.731689,806.560120 499.082825,825.810181 
	C582.336548,874.328796 667.414307,878.813782 752.143005,832.202148 
	C831.931580,788.308167 871.140503,717.049561 880.258972,627.879150 
	C878.394653,628.367615 877.138916,629.332825 875.852356,630.254883 
	C850.419861,648.480896 825.412415,667.340332 799.446777,684.772583 
	C761.664917,710.137817 721.890747,732.200867 680.558960,752.960205 
M450.153564,813.527222 
	C448.001587,811.439941 445.859467,809.342407 443.696167,807.266846 
	C413.926941,778.703735 391.427429,745.255737 377.122833,706.552612 
	C371.682770,691.833618 367.611267,676.608765 362.911926,661.601379 
	C363.208405,661.503845 362.834900,661.520996 362.616150,661.713745 
	C340.184540,681.486389 319.328522,702.739136 302.174652,727.343567 
	C292.239197,741.594421 283.410492,756.481934 279.736389,773.790100 
	C276.061798,791.100952 281.689728,804.427673 296.609711,814.092896 
	C308.250549,821.633850 321.400421,824.462036 334.859192,825.963501 
	C362.718323,829.071655 390.412628,826.926819 417.973602,822.529297 
	C428.323334,820.877930 438.614990,818.851746 448.902863,816.841553 
	C449.917389,816.643372 453.972565,817.368591 450.153564,813.527222 
M912.492615,571.993164 
	C926.356384,556.724792 940.813171,541.944214 953.899536,526.036316 
	C964.682922,512.928040 973.417297,498.231415 978.269531,481.671906 
	C985.083862,458.415802 976.731201,441.938568 954.598511,435.070984 
	C928.906921,427.099152 902.980591,430.144287 876.878357,433.279297 
	C877.369568,446.018127 874.822021,457.573944 867.739136,467.763336 
	C865.906311,470.399933 866.082947,472.186005 867.555847,474.830994 
	C881.083435,499.123352 890.466064,524.947937 895.417236,552.320740 
	C897.235291,562.371582 898.596069,572.505066 900.273682,583.296936 
	C904.455078,579.424438 908.210938,575.946106 912.492615,571.993164 
M846.010742,462.559113 
	C859.248230,449.318695 860.685730,431.524200 849.559387,418.632355 
	C838.383850,405.683594 818.978821,403.878387 806.084656,414.588074 
	C792.779480,425.639221 790.884766,445.313538 801.820679,458.863525 
	C812.650024,472.281555 831.351746,474.068848 846.010742,462.559113 
z"/>
<path fill="#010101" opacity="1.000000" stroke="none" 
	d="
M798.930115,483.084717 
	C815.831299,492.939301 832.676819,492.989502 850.481323,484.166718 
	C854.940186,494.086945 859.863220,503.692566 863.649658,513.727051 
	C873.397278,539.558838 879.244446,566.265198 880.477051,593.947937 
	C880.682617,598.565063 879.511353,601.493774 875.875916,604.474182 
	C833.022034,639.607666 787.213806,670.410950 739.375366,698.277161 
	C692.970825,725.308105 644.913513,749.021790 595.283936,769.494324 
	C558.370361,784.721558 520.792419,798.116638 482.228851,808.635803 
	C478.790619,809.573669 476.293243,809.426514 473.282410,806.925659 
	C424.227844,766.179199 393.281586,714.517212 382.398071,651.815552 
	C370.653778,584.154907 382.761292,520.153015 420.382416,462.586304 
	C464.215210,395.514587 527.044067,357.073730 606.956238,348.985382 
	C673.484924,342.251617 733.143250,360.738373 785.194702,403.030853 
	C785.831116,403.547943 786.424805,404.117645 787.372498,404.959503 
	C776.250122,418.354645 772.059204,433.593719 776.040527,450.569000 
	C779.246094,464.236755 786.682861,475.203918 798.930115,483.084717 
z"/>
<path fill="#020202" opacity="1.000000" stroke="none" 
	d="
M680.898682,752.807129 
	C721.890747,732.200867 761.664917,710.137817 799.446777,684.772583 
	C825.412415,667.340332 850.419861,648.480896 875.852356,630.254883 
	C877.138916,629.332825 878.394653,628.367615 880.258972,627.879150 
	C871.140503,717.049561 831.931580,788.308167 752.143005,832.202148 
	C667.414307,878.813782 582.336548,874.328796 499.082825,825.810181 
	C561.731689,806.560120 622.121399,782.194763 680.898682,752.807129 
z"/>
<path fill="#020202" opacity="1.000000" stroke="none" 
	d="
M450.432922,813.771729 
	C453.972565,817.368591 449.917389,816.643372 448.902863,816.841553 
	C438.614990,818.851746 428.323334,820.877930 417.973602,822.529297 
	C390.412628,826.926819 362.718323,829.071655 334.859192,825.963501 
	C321.400421,824.462036 308.250549,821.633850 296.609711,814.092896 
	C281.689728,804.427673 276.061798,791.100952 279.736389,773.790100 
	C283.410492,756.481934 292.239197,741.594421 302.174652,727.343567 
	C319.328522,702.739136 340.184540,681.486389 362.616150,661.713745 
	C362.834900,661.520996 363.208405,661.503845 362.911926,661.601379 
	C367.611267,676.608765 371.682770,691.833618 377.122833,706.552612 
	C391.427429,745.255737 413.926941,778.703735 443.696167,807.266846 
	C445.859467,809.342407 448.001587,811.439941 450.432922,813.771729 
z"/>
<path fill="#030303" opacity="1.000000" stroke="none" 
	d="
M912.229675,572.230469 
	C908.210938,575.946106 904.455078,579.424438 900.273682,583.296936 
	C898.596069,572.505066 897.235291,562.371582 895.417236,552.320740 
	C890.466064,524.947937 881.083435,499.123352 867.555847,474.830994 
	C866.082947,472.186005 865.906311,470.399933 867.739136,467.763336 
	C874.822021,457.573944 877.369568,446.018127 876.878357,433.279297 
	C902.980591,430.144287 928.906921,427.099152 954.598511,435.070984 
	C976.731201,441.938568 985.083862,458.415802 978.269531,481.671906 
	C973.417297,498.231415 964.682922,512.928040 953.899536,526.036316 
	C940.813171,541.944214 926.356384,556.724792 912.229675,572.230469 
z"/>
<path fill="#040403" opacity="1.000000" stroke="none" 
	d="
M845.742615,462.797302 
	C831.351746,474.068848 812.650024,472.281555 801.820679,458.863525 
	C790.884766,445.313538 792.779480,425.639221 806.084656,414.588074 
	C818.978821,403.878387 838.383850,405.683594 849.559387,418.632355 
	C860.685730,431.524200 859.248230,449.318695 845.742615,462.797302 
z"/>
</svg>
